 <svg  version="1.0" xmlns="http://www.w3.org/2000/svg"  width="512.000000pt" height="512.000000pt" viewBox="0 0 512.000000 512.000000"  preserveAspectRatio="xMidYMid meet">  <g transform="translate(0.000000,512.000000) scale(0.100000,-0.100000)" fill="#ffffff" stroke="none"> <path d="M2035 4838 c-175 -19 -388 -79 -557 -156 -427 -194 -809 -610 -965 -1053 -24 -67 -31 -79 -50 -79 l-23 0 0 423 0 423 29 17 c38 22 65 80 58 124 -28 173 -267 153 -267 -22 0 -44 4 -52 45 -92 l45 -43 0 -414 0 -413 -46 -6 c-34 -3 -55 -13 -78 -36 l-31 -31 -3 -553 c-2 -383 0 -564 8 -590 18 -63 53 -77 193 -77 l119 0 16 -43 c119 -308 358 -619 631 -822 l72 -53 -91 -21 c-50 -11 -105 -28 -123 -37 -116 -59 -117 -149 -1 -207 77 -39 327 -83 614 -109 229 -21 1038 -17 1260 5 316 32 521 75 597 124 14 9 32 32 39 50 32 76 -33 133 -197 173 -45 10 -83 21 -85 23 -3 2 28 28 68 57 40 29 132 112 203 184 180 182 300 356 396 579 l42 97 149 0 c145 0 150 1 173 25 l25 24 0 594 c0 570 -1 596 -19 618 -18 23 -27 24 -161 29 l-142 5 -34 90 c-201 519 -618 928 -1127 1104 -252 87 -526 118 -782 89z m508 -467 c811 -163 1340 -924 1201 -1731 -87 -502 -438 -934 -920 -1131 -303 -124 -663 -145 -984 -58 -260 71 -481 200 -680 399 -396 394 -536 973 -364 1505 103 320 323 607 607 793 191 125 381 197 627 237 123 21 375 13 513 -14z"/> <path d="M1813 3281 c-54 -25 -105 -95 -135 -186 -19 -59 -23 -91 -23 -200 0 -110 4 -140 24 -198 43 -127 117 -197 206 -197 89 0 163 70 206 197 20 58 24 88 24 198 0 109 -4 141 -23 200 -42 126 -121 205 -207 205 -16 0 -49 -9 -72 -19z"/> <path d="M2530 3278 c-51 -26 -96 -86 -131 -176 -20 -50 -23 -75 -24 -197 0 -122 3 -149 23 -208 44 -127 118 -197 207 -197 89 0 163 70 206 197 20 58 24 88 24 198 0 109 -4 141 -23 200 -30 91 -81 161 -135 186 -55 25 -93 24 -147 -3z"/> </g> </svg> 